<?xml version="1.0" encoding="utf-8"?>
<!-- Generator: Adobe Illustrator 24.2.1, SVG Export Plug-In . SVG Version: 6.00 Build 0)  -->
<svg version="1.1" id="Layer_1" xmlns="http://www.w3.org/2000/svg" xmlns:xlink="http://www.w3.org/1999/xlink" x="0px" y="0px"
	 viewBox="0 0 855.8 208.9" style="enable-background:new 0 0 855.8 208.9;" xml:space="preserve">
<style type="text/css">
	.st0{fill:url(#SVGID_1_);}
	.st1{fill:url(#SVGID_2_);}
	.st2{fill:url(#SVGID_3_);}
	.st3{fill:url(#SVGID_4_);}
</style>
<linearGradient id="SVGID_1_" gradientUnits="userSpaceOnUse" x1="-83.8057" y1="415.9783" x2="934.6953" y2="-172.0535" gradientTransform="matrix(1 0 0 -1 0 189.162)">
	<stop  offset="0" style="stop-color:#9645FB"/>
	<stop  offset="1" style="stop-color:#DD2DFD"/>
</linearGradient>
<path class="st0" d="M563.8,33.7h-38.2l-51.1,175.2h31.2l13.3-48.4h49.4l13.9,48.4h32.2L563.8,33.7z M523.6,137.1l11.8-42.3
	c2.8-10.6,5.5-24.1,7.8-35h0.6c2.4,10.8,5.1,24,8.1,35l11.9,42.3H523.6z"/>
<linearGradient id="SVGID_2_" gradientUnits="userSpaceOnUse" x1="22.3052" y1="461.0815" x2="902.9583" y2="-47.3638" gradientTransform="matrix(1 0 0 -1 0 189.162)">
	<stop  offset="0" style="stop-color:#9645FB"/>
	<stop  offset="1" style="stop-color:#DD2DFD"/>
</linearGradient>
<path class="st1" d="M760.2,46.5c-10.9-9.5-27.3-14-49.2-14c-18.8,0-33.3,1.5-44.1,3.5v172.9h30.5v-66.8c3.8,0.7,8.3,0.9,13.3,0.9
	c20.3,0,39.3-6,51.4-18.6c9.2-9.4,14.3-22.6,14.3-39.6C776.4,68.9,770.3,55.1,760.2,46.5z M710.4,118.9c-5.4,0-9.5-0.3-13-1.2V57.9
	c3.1-0.8,8.6-1.5,15.9-1.5c21.1,0,32.6,11.4,32.6,29.9C745.8,106.8,732.6,118.9,710.4,118.9z"/>
<linearGradient id="SVGID_3_" gradientUnits="userSpaceOnUse" x1="-276.632" y1="712.7804" x2="963.4166" y2="-3.162" gradientTransform="matrix(1 0 0 -1 0 189.162)">
	<stop  offset="0" style="stop-color:#9645FB"/>
	<stop  offset="1" style="stop-color:#DD2DFD"/>
</linearGradient>
<rect x="825" y="33.7" class="st2" width="30.8" height="175.2"/>
<linearGradient id="SVGID_4_" gradientUnits="userSpaceOnUse" x1="18.4938" y1="260.1104" x2="768.6081" y2="-172.9683" gradientTransform="matrix(1 0 0 -1 0 189.162)">
	<stop  offset="0" style="stop-color:#9645FB"/>
	<stop  offset="1" style="stop-color:#DD2DFD"/>
</linearGradient>
<path class="st3" d="M482.1,10.4c-52.6-11.5-119.4,64.2-76.3,110.5c-29.7-7.3-56.7,3.4-75.7,29.7c-10.7-10.3-22.1-8.1-31.5-9.9v68.1
	h-24.8v-70.7c0-6.8-1.3-12.4-3.9-16.5c-4.3-7-12.2-10.5-23.6-10.5c-5.8,0-10.5,0.5-14.2,1.4c-6.7,1.5-12.6,4.6-17.6,9.2
	c-4.1,3.7-6.7,7.5-7.9,11.5c-1.2,4-1.8,9.6-1.8,16.9v58.8h-24.4l-0.1-67.7c-8.7,1-18.8,0.3-28.2,9.4c-19-26.3-46-37-75.7-29.7
	C119.4,74.5,52.6-1.1,0,10.4C52-16,142.3,13.9,172,35.5c-61.4,28.1-43.7,74.7,8.2,83.1v-22h23.2v15.8c6.9-6.6,14.2-11.3,21.8-14.1
	c7.7-2.9,16.2-4.3,25.6-4.3c20.6,0,34.5,5.6,41.8,16.7c1.6,2.4,2.9,5.3,3.8,8.5c56.1-5.8,77.3-54.7,13.8-83.8
	C339.8,13.8,430.1-16,482.1,10.4z"/>
</svg>
