<?xml version="1.0" encoding="utf-8"?>
<!-- Generator: Adobe Illustrator 24.2.1, SVG Export Plug-In . SVG Version: 6.00 Build 0)  -->
<svg version="1.1" id="Layer_1" xmlns="http://www.w3.org/2000/svg" xmlns:xlink="http://www.w3.org/1999/xlink" x="0px" y="0px"
	 viewBox="0 0 664 209.3" style="enable-background:new 0 0 664 209.3;" xml:space="preserve">
<style type="text/css">
	.st0{fill:#EC2854;stroke:#EC2854;stroke-miterlimit:10;}
	.st1{fill:#FFFFFF;}
	.st2{enable-background:new    ;}
</style>
<path class="st0" d="M172.2,36c-16.6,6.9-52.7,34-36.2,58.5c7.3,10.8,19.9,18.4,31.5,22.1c10.7,3.4,23.9-0.8,33.7,3.7
	c-2.1,5.1-9.5,23.7-15.8,22.3c-11.8-2.5-23.8-0.4-33.1,8.5c-19-26.3-46-37-75.7-29.7c22-27.2,16.6-55.7-6.6-81.6
	C56,24.1,22,1.8,0.2,10.9C54.8-11.8,121.3,5.4,172.2,36C163.4,39.7,168.6,33.9,172.2,36L172.2,36z M310.4,36
	c16.6,6.9,52.7,34,36.2,58.5c-7.3,10.8-19.9,18.4-31.5,22.1c-10.7,3.4-23.9-0.8-33.7,3.7c2.1,5.1,9.5,23.7,15.8,22.3
	c11.8-2.5,23.8-0.4,33.1,8.5c19-26.3,46-37,75.7-29.7c-22.1-27.2-16.7-55.7,6.5-81.6c14-15.7,48-38,69.8-28.9
	C427.8-11.8,361.2,5.4,310.4,36C319.2,39.7,314,33.9,310.4,36z"/>
<path class="st1" d="M180.4,97.1h23.2V113c6.9-6.6,14.2-11.3,21.8-14.1c7.7-2.9,16.2-4.3,25.6-4.3c20.6,0,34.5,5.6,41.8,16.7
	c4,6.1,6,14.8,6,26.1v71.9H274v-70.7c0-6.8-1.3-12.4-3.9-16.5c-4.3-7-12.2-10.5-23.6-10.5c-5.8,0-10.5,0.5-14.2,1.4
	c-6.7,1.5-12.6,4.6-17.6,9.2c-4.1,3.7-6.7,7.5-7.9,11.5s-1.8,9.6-1.8,16.9v58.8h-24.4L180.4,97.1L180.4,97.1z"/>
<g class="st2">
	<path class="st1" d="M534,209h-23.1l-9.2-25.1h-42.2l-8.7,25.1h-22.6l41-110.6h22.5L534,209z M494.9,165.2l-14.6-41l-14.3,41H494.9
		z"/>
	<path class="st1" d="M545.2,209V98.4h34.2c12.7,0,21.1,0.5,25,1.6c6.3,1.7,11.4,5.4,15.5,10.9c4.1,5.6,6.1,12.8,6.1,21.6
		c0,8-1.8,14.7-5.3,20.1c-3.5,5.4-7.9,9.2-13.2,11.4c-5.3,2.2-14.3,3.3-27.2,3.3h-13.9V209H545.2z M566.4,117.1v31.5h11.8
		c7.9,0,13.3-0.5,16.1-1.4c2.8-1,5.2-2.7,7-5.2c1.8-2.5,2.7-5.6,2.7-9.2c0-3.7-0.9-6.8-2.8-9.3c-1.9-2.5-4.2-4.2-6.9-5.1
		c-2.8-0.9-8.6-1.3-17.5-1.3H566.4z"/>
	<path class="st1" d="M642.7,209V98.4H664V209H642.7z"/>
</g>
</svg>
